REM DIRINDEX 1\2,1\3,1\4,1\5
REM DIRNAME cjc004,folder01,folder02,folder03,folder04
TITLE ""
FILE "1Q_t_1430-1439.mp3" MP3
  TRACK 01 AUDIO
    TITLE "3:cjc004_5196"
    INDEX 01 00:00:00
  TRACK 02 AUDIO
    TITLE "0:"
    INDEX 01 00:00:64
  TRACK 03 AUDIO
    TITLE "4:cjc004_5197"
    INDEX 01 00:01:21
  TRACK 04 AUDIO
    TITLE "0:"
    INDEX 01 00:02:32
  TRACK 05 AUDIO
    TITLE "5:cjc004_5198"
    INDEX 01 00:02:59
  TRACK 06 AUDIO
    TITLE "0:"
    INDEX 01 00:07:07
  TRACK 07 AUDIO
    TITLE "3:cjc004_5199"
    INDEX 01 00:07:66
  TRACK 08 AUDIO
    TITLE "0:"
    INDEX 01 00:09:45
  TRACK 09 AUDIO
    TITLE "4:cjc004_5200"
    INDEX 01 00:10:00
  TRACK 10 AUDIO
    TITLE "0:"
    INDEX 01 00:11:39
  TRACK 11 AUDIO
    TITLE "5:cjc004_5201"
    INDEX 01 00:11:66
  TRACK 12 AUDIO
    TITLE "0:"
    INDEX 01 00:16:10
  TRACK 13 AUDIO
    TITLE "3:cjc004_5202"
    INDEX 01 00:16:57
  TRACK 14 AUDIO
    TITLE "0:"
    INDEX 01 00:18:13
  TRACK 15 AUDIO
    TITLE "4:cjc004_5203"
    INDEX 01 00:18:46
  TRACK 16 AUDIO
    TITLE "0:"
    INDEX 01 00:20:37
  TRACK 17 AUDIO
    TITLE "5:cjc004_5204"
    INDEX 01 00:20:61
  TRACK 18 AUDIO
    TITLE "0:"
    INDEX 01 00:25:05
  TRACK 19 AUDIO
    TITLE "3:cjc004_5205"
    INDEX 01 00:25:56
  TRACK 20 AUDIO
    TITLE "0:"
    INDEX 01 00:27:02
  TRACK 21 AUDIO
    TITLE "4:cjc004_5206"
    INDEX 01 00:27:32
  TRACK 22 AUDIO
    TITLE "0:"
    INDEX 01 00:28:53
  TRACK 23 AUDIO
    TITLE "5:cjc004_5207"
    INDEX 01 00:29:05
  TRACK 24 AUDIO
    TITLE "0:"
    INDEX 01 00:33:44
  TRACK 25 AUDIO
    TITLE "3:cjc004_5208"
    INDEX 01 00:34:20
  TRACK 26 AUDIO
    TITLE "0:"
    INDEX 01 00:35:41
  TRACK 27 AUDIO
    TITLE "4:cjc004_5209"
    INDEX 01 00:35:72
  TRACK 28 AUDIO
    TITLE "0:"
    INDEX 01 00:37:24
  TRACK 29 AUDIO
    TITLE "5:cjc004_5210"
    INDEX 01 00:37:52
  TRACK 30 AUDIO
    TITLE "0:"
    INDEX 01 00:42:35
  TRACK 31 AUDIO
    TITLE "3:cjc004_5211"
    INDEX 01 00:43:15
  TRACK 32 AUDIO
    TITLE "0:"
    INDEX 01 00:44:32
  TRACK 33 AUDIO
    TITLE "4:cjc004_5212"
    INDEX 01 00:44:63
  TRACK 34 AUDIO
    TITLE "0:"
    INDEX 01 00:45:71
  TRACK 35 AUDIO
    TITLE "5:cjc004_5213"
    INDEX 01 00:46:19
  TRACK 36 AUDIO
    TITLE "0:"
    INDEX 01 00:51:11
  TRACK 37 AUDIO
    TITLE "3:cjc004_5214"
    INDEX 01 00:51:67
  TRACK 38 AUDIO
    TITLE "0:"
    INDEX 01 00:53:08
  TRACK 39 AUDIO
    TITLE "4:cjc004_5215"
    INDEX 01 00:53:33
  TRACK 40 AUDIO
    TITLE "0:"
    INDEX 01 00:54:50
  TRACK 41 AUDIO
    TITLE "5:cjc004_5216"
    INDEX 01 00:54:70
  TRACK 42 AUDIO
    TITLE "0:"
    INDEX 01 00:59:32
  TRACK 43 AUDIO
    TITLE "3:cjc004_5217"
    INDEX 01 01:00:13
  TRACK 44 AUDIO
    TITLE "0:"
    INDEX 01 01:01:40
  TRACK 45 AUDIO
    TITLE "4:cjc004_5218"
    INDEX 01 01:01:66
  TRACK 46 AUDIO
    TITLE "0:"
    INDEX 01 01:03:10
  TRACK 47 AUDIO
    TITLE "5:cjc004_5219"
    INDEX 01 01:03:37
  TRACK 48 AUDIO
    TITLE "0:"
    INDEX 01 01:07:63
  TRACK 49 AUDIO
    TITLE "3:cjc004_5220"
    INDEX 01 01:08:42
  TRACK 50 AUDIO
    TITLE "0:"
    INDEX 01 01:09:52
  TRACK 51 AUDIO
    TITLE "4:cjc004_5221"
    INDEX 01 01:10:04
  TRACK 52 AUDIO
    TITLE "0:"
    INDEX 01 01:11:31
  TRACK 53 AUDIO
    TITLE "5:cjc004_5222"
    INDEX 01 01:11:58
  TRACK 54 AUDIO
    TITLE "0:"
    INDEX 01 01:15:42
  TRACK 55 AUDIO
    TITLE "3:cjc004_5223"
    INDEX 01 01:16:22
  TRACK 56 AUDIO
    TITLE "0:"
    INDEX 01 01:17:61
  TRACK 57 AUDIO
    TITLE "4:cjc004_5224"
    INDEX 01 01:18:13
  TRACK 58 AUDIO
    TITLE "0:"
    INDEX 01 01:19:44
  TRACK 59 AUDIO
    TITLE "5:cjc004_5225"
    INDEX 01 01:19:68
  TRACK 60 AUDIO
    TITLE "0:"
    INDEX 01 01:24:22
